<svg height='300px' width='300px'  fill="#000000" xmlns="http://www.w3.org/2000/svg" viewBox="0 0 48 48" x="0px" y="0px"><g><path d="M48,31a4.0545,4.0545,0,0,0-1.4033-3.3545c-1.1249-.9018-2.8551-1.1569-5.2516-.7856l.6213-9.3192C42.7225,16.9113,44,15.3522,44,12a8.4868,8.4868,0,0,0-2.0557-5.5273A8.03,8.03,0,0,1,40,1,1,1,0,0,0,38.4453.168l-.4482.2973C34.8125,2.5718,30,5.7549,30,12c0,3.3522,1.2775,4.9113,2.0336,5.5407l.7143,10.7131c-3.0239-.5073-6.1663-2.4272-6.7674-5.45a16.7819,16.7819,0,0,1,.35-4.8638c.5967-3.85,1.2734-8.2133-1.2266-11.1308C23.4834,4.9189,20.833,4,17,4,6.9814,4,0,12.96,0,21,0,35.1865,9.1963,44,24,44a36.21,36.21,0,0,0,9.709-1.3309l.16,2.4022a3.1379,3.1379,0,0,0,6.2618,0l.34-5.0994C45.1263,37.3881,48,33.9835,48,31ZM34.0693,18h5.8614l-.2667,4H34.336ZM38.123,2.7856a10.071,10.071,0,0,0,2.2061,4.8663A6.4711,6.4711,0,0,1,42,12c0,2.6431-.94,3.6914-1.3047,4H33.31c-.3838-.3232-1.31-1.3755-1.31-4C32,7.3735,35.2852,4.7139,38.123,2.7856ZM24,42C10.2241,42,2,34.1494,2,21,2,14.8691,7.3418,6,17,6c3.1694,0,5.3848.71,6.5845,2.11,1.9018,2.2187,1.3,6.1.77,9.5234a17.687,17.687,0,0,0-.335,5.561c.8211,4.1284,4.9319,6.6046,8.865,7.1018l.6892,10.3371A34.1646,34.1646,0,0,1,24,42Zm13,4a1.1394,1.1394,0,0,1-1.1348-1.0615L34.4694,24h5.0612L38.1348,44.9385A1.1394,1.1394,0,0,1,37,46Zm3.632-8.4451.5762-8.6421c2.492-.4578,3.6328-.1107,4.14.2942A2.1576,2.1576,0,0,1,46,31C46,32.9706,43.899,35.4886,40.632,37.5549Z"></path><path d="M16,17a4,4,0,1,0-4-4A4.0045,4.0045,0,0,0,16,17Zm0-6a2,2,0,1,1-2,2A2.002,2.002,0,0,1,16,11Z"></path><path d="M16,28a5,5,0,1,0,5,5A5.0059,5.0059,0,0,0,16,28Zm0,8a3,3,0,1,1,3-3A3.0033,3.0033,0,0,1,16,36Z"></path><path d="M14,22a5,5,0,1,0-5,5A5.0059,5.0059,0,0,0,14,22ZM9,25a3,3,0,1,1,3-3A3.0033,3.0033,0,0,1,9,25Z"></path><path d="M27,32a4,4,0,1,0,4,4A4.0042,4.0042,0,0,0,27,32Zm0,6a2,2,0,1,1,2-2A2.0027,2.0027,0,0,1,27,38Z"></path></g></svg>