<svg height='300px' width='300px'  fill="#000000" xmlns="http://www.w3.org/2000/svg" data-name="Layer 38" viewBox="0 0 100 100" x="0px" y="0px"><path d="M96,54c0-.11-.11-9.82-8.06-12.37a7,7,0,1,0-8.33,0c-8,2.55-8.07,12.26-8.07,12.37a1,1,0,0,0,.46.84,23.38,23.38,0,0,0,7.45,3.28,7,7,0,0,0,.13,11.12c-7.95,2.55-8.06,12.26-8.06,12.37a1,1,0,0,0,.45.84,21.54,21.54,0,0,0,11.78,3.8,21.51,21.51,0,0,0,11.77-3.8,1,1,0,0,0,.46-.84c0-.11-.11-9.82-8.07-12.37a7,7,0,0,0,.14-11.11,23.65,23.65,0,0,0,7.5-3.29A1,1,0,0,0,96,54ZM78.8,36a5,5,0,1,1,5,5A5,5,0,0,1,78.8,36ZM94,81c-6.87,4.26-13.56,4.26-20.42,0,.15-2.22,1.31-10.44,10.21-10.44S93.83,78.82,94,81ZM88.76,63.6a5,5,0,1,1-5-5A5,5,0,0,1,88.76,63.6Zm-4.79-7h-.38a19.38,19.38,0,0,1-10-3.18C73.73,51.21,74.89,43,83.79,43S93.85,51.21,94,53.44A19.33,19.33,0,0,1,84,56.62Z"></path><path d="M30.88,46.49C37.22,50.6,43.61,52.65,50,52.65s12.78-2,19.12-6.16a1,1,0,0,0,.46-.84c0-.19-.19-16.84-14.26-20.22a10.91,10.91,0,1,0-10.64,0c-14.07,3.38-14.26,20-14.26,20.22A1,1,0,0,0,30.88,46.49ZM41.09,15.91A8.91,8.91,0,1,1,50,24.82,8.92,8.92,0,0,1,41.09,15.91ZM50,26.82c15.88,0,17.42,15.15,17.56,18.29-11.81,7.46-23.31,7.46-35.12,0C32.58,42,34.12,26.82,50,26.82Z"></path><path d="M4,81.58a1,1,0,0,0,.46.84,21.51,21.51,0,0,0,11.77,3.8A21.54,21.54,0,0,0,28,82.42a1,1,0,0,0,.45-.84c0-.11-.11-9.82-8.06-12.37a7,7,0,0,0,.14-11.11A23.7,23.7,0,0,0,28,54.81a1,1,0,0,0,.46-.84c0-.11-.11-9.82-8.07-12.37a7,7,0,1,0-8.33,0C4.13,44.15,4,53.86,4,54a1,1,0,0,0,.46.84,23.52,23.52,0,0,0,7.46,3.28,7,7,0,0,0,.13,11.12C4.11,71.76,4,81.47,4,81.58ZM11.26,36a5,5,0,1,1,5,5A5,5,0,0,1,11.26,36ZM6.05,53.44C6.2,51.21,7.35,43,16.26,43s10.06,8.22,10.2,10.45a19.33,19.33,0,0,1-10,3.18h-.38A19.32,19.32,0,0,1,6.05,53.44ZM11.24,63.6a5,5,0,1,1,5,5A5,5,0,0,1,11.24,63.6Zm5,7c8.9,0,10.06,8.22,10.21,10.44C19.58,85.3,12.89,85.3,6,81,6.17,78.82,7.33,70.6,16.23,70.6Z"></path><path d="M27,91.69a21.52,21.52,0,0,0,11.77,3.79A21.3,21.3,0,0,0,50,92a21.3,21.3,0,0,0,11.26,3.48A21.49,21.49,0,0,0,73,91.69a1,1,0,0,0,.46-.84c0-.11-.11-9.83-8.07-12.38a7,7,0,1,0-8.33,0A11.15,11.15,0,0,0,50,85.78a11.15,11.15,0,0,0-7.09-7.31,7,7,0,1,0-8.33,0c-8,2.55-8.07,12.27-8.07,12.38A1,1,0,0,0,27,91.69ZM56.26,72.87a5,5,0,1,1,5,5A5,5,0,0,1,56.26,72.87Zm5,7c8.9,0,10.06,8.22,10.2,10.45-6.86,4.26-13.55,4.26-20.41,0C51.2,88.08,52.35,79.86,61.26,79.86Zm-27.51-7a5,5,0,1,1,5,5A5,5,0,0,1,33.75,72.87Zm5,7c8.91,0,10.06,8.22,10.21,10.45-6.86,4.26-13.55,4.26-20.41,0C28.68,88.08,29.84,79.86,38.74,79.86Z"></path></svg>