<svg height='300px' width='300px'  fill="#000000" xmlns="http://www.w3.org/2000/svg" viewBox="0 0 64 64" x="0px" y="0px"><g data-name="02_Idea"><path d="M59,41H57a5.006,5.006,0,0,1-5-5V30a1,1,0,0,1,1-1H63a1,1,0,0,1,1,1v6A5.006,5.006,0,0,1,59,41ZM54,31v5a3,3,0,0,0,3,3h2a3,3,0,0,0,3-3V31Z"></path><rect x="54" y="27" width="2" height="3"></rect><rect x="60" y="27" width="2" height="3"></rect><path d="M59,44H57a3,3,0,0,1-3-3V39h2v2a1,1,0,0,0,1,1h2a1,1,0,0,0,1-1V39h2v2A3,3,0,0,1,59,44Z"></path><path d="M54,64H28a3,3,0,0,1-3-3V59h2v2a1,1,0,0,0,1,1H54a3,3,0,0,0,3-3V43h2V59A5.006,5.006,0,0,1,54,64Z"></path><rect x="25" y="1" width="2" height="4"></rect><rect x="47" y="24" width="4" height="2"></rect><rect x="1" y="24" width="4" height="2"></rect><rect x="42.264" y="40.263" width="2" height="4" transform="translate(-17.213 42.971) rotate(-45)"></rect><rect x="8.737" y="6.736" width="2" height="4" transform="translate(-3.326 9.444) rotate(-45)"></rect><rect x="6.736" y="41.264" width="4" height="2" transform="translate(-27.326 18.556) rotate(-45)"></rect><rect x="40.263" y="7.737" width="4" height="2" transform="translate(6.201 32.444) rotate(-45)"></rect><path d="M26,51a29.6,29.6,0,0,1-4.141-.268l.282-1.981A27.411,27.411,0,0,0,26,49c4.97,0,7.24-1.046,8-1.508v-.45a11.836,11.836,0,0,1,3.62-8.653A16.81,16.81,0,0,0,43,26a16.987,16.987,0,0,0-7.556-14.138L36.556,10.2A18.984,18.984,0,0,1,45,26a18.789,18.789,0,0,1-6.013,13.849A9.834,9.834,0,0,0,36,47.042V48a1,1,0,0,1-.293.707C35.473,48.942,33.206,51,26,51Z"></path><path d="M19.748,50.315a7.72,7.72,0,0,1-3.455-1.608A1,1,0,0,1,16,48V46.736A9.731,9.731,0,0,0,12.859,39.7,18.987,18.987,0,0,1,23.837,7.12a19.233,19.233,0,0,1,6.384.351l-.442,1.95A17,17,0,0,0,9.053,24.637a16.958,16.958,0,0,0,5.189,13.621A11.711,11.711,0,0,1,18,46.736V47.5a8.472,8.472,0,0,0,2.252.885Z"></path><path d="M33.794,10.888a16.859,16.859,0,0,0-2.127-.921l.666-1.885a18.806,18.806,0,0,1,2.38,1.03Z"></path><path d="M31,55H21a5.006,5.006,0,0,1-5-5V48h2v2a3,3,0,0,0,3,3H31a3,3,0,0,0,3-3V48h2v2A5.006,5.006,0,0,1,31,55Z"></path><path d="M29,59H23a5.006,5.006,0,0,1-5-5v-.54h2V54a3,3,0,0,0,3,3h6a3,3,0,0,0,3-3v-.54h2V54A5.006,5.006,0,0,1,29,59Z"></path><path d="M31,41H29a4,4,0,0,1-4-4V14.961a3.961,3.961,0,0,1,6.436-3.093l2.688,2.15A4.978,4.978,0,0,1,36,17.922V19H34V17.922a2.983,2.983,0,0,0-1.126-2.342l-2.687-2.15A1.961,1.961,0,0,0,27,14.961V37a2,2,0,0,0,2,2h2a1,1,0,0,0,1-1,1,1,0,0,1,1-1c.185-.01,2-.207,2-4a1,1,0,0,1,1-1h.5a1.5,1.5,0,0,0,.556-2.889l.728-1.862a3.5,3.5,0,0,1-.822,6.721c-.276,3.384-2,4.491-3.077,4.854A3,3,0,0,1,31,41Z"></path><path d="M35,30H34V28h1a3,3,0,0,0,3-3,1,1,0,0,0-1-1,1,1,0,0,1-1-1V21.5a2.5,2.5,0,0,0-5,0V22H29v-.5a4.5,4.5,0,0,1,9,0v.671A3.006,3.006,0,0,1,40,25,5.006,5.006,0,0,1,35,30Z"></path><path d="M31,17.007,29,17a3.881,3.881,0,0,1,3.416-3.964l.228,1.987A1.907,1.907,0,0,0,31,17.007Z"></path><path d="M30,27a5.319,5.319,0,0,1-4.895-2.553l1.79-.894A3.4,3.4,0,0,0,30,25c2.966,0,3-3.837,3-4h2C35,23.075,33.955,27,30,27Z"></path><path d="M27,35.007,25,35a3.887,3.887,0,0,1,4-4v2A1.884,1.884,0,0,0,27,35.007Z"></path><path d="M33,33H31c0-2.966-1.918-3-2-3V28C30.383,28,33,29.045,33,33Z"></path><path d="M29.949,36.316l-1.9-.632C28.1,35.533,29.333,32,34,32v2C30.758,34,29.957,36.293,29.949,36.316Z"></path><path d="M23,41H21a3,3,0,0,1-2.885-2.176c-1.081-.363-2.8-1.47-3.077-4.854a3.5,3.5,0,0,1-.822-6.721l.728,1.862A1.5,1.5,0,0,0,15.5,32H16a1,1,0,0,1,1,1c0,3.793,1.815,3.99,2.022,4A1.024,1.024,0,0,1,20,38a1,1,0,0,0,1,1h2a2,2,0,0,0,2-2V14.961a1.961,1.961,0,0,0-3.187-1.531l-2.688,2.15A2.985,2.985,0,0,0,18,17.922V19H16V17.922a4.978,4.978,0,0,1,1.876-3.9l2.688-2.15A3.961,3.961,0,0,1,27,14.961V37A4,4,0,0,1,23,41Z"></path><path d="M18,30H17a5.006,5.006,0,0,1-5-5,3.006,3.006,0,0,1,2-2.829V21.5a4.5,4.5,0,0,1,9,0V22H21v-.5a2.5,2.5,0,0,0-5,0V23a1,1,0,0,1-1,1,1,1,0,0,0-1,1,3,3,0,0,0,3,3h1Z"></path><path d="M23,17H21a1.9,1.9,0,0,0-1.644-1.977l.228-1.987A3.881,3.881,0,0,1,23,17Z"></path><path d="M22,27c-3.955,0-5-3.925-5-6h1l1,0c0,.164.057,4,3,4a3.4,3.4,0,0,0,3.112-1.46l1.783.907A5.319,5.319,0,0,1,22,27Z"></path><path d="M25,35.007A1.884,1.884,0,0,0,23,33V31a3.887,3.887,0,0,1,4,4H26Z"></path><path d="M21,33H19c0-3.955,2.617-5,4-5l.014,2C22.678,30.01,21,30.2,21,33Z"></path><path d="M22.055,36.326C22.021,36.231,21.187,34,18,34V32c4.667,0,5.9,3.533,5.949,3.684Z"></path></g></svg>