<svg height='300px' width='300px'  fill="#000000" xmlns="http://www.w3.org/2000/svg" viewBox="0 0 100 100" x="0px" y="0px"><title>FILE</title><g data-name="ICON 04"><path d="M9.17,37.34V81a1,1,0,0,0,1,1H89.83a1,1,0,0,0,1-1V19a1,1,0,0,0-1-1H10.17a1,1,0,0,0-1,1V37.33Zm2,6.34H40.74a9.94,9.94,0,0,0,5.59,5.59V60.72H11.17Zm0,24.38H46.33V80H11.17Zm42.5,12V49.26l.28-.12L84.82,80Zm34,0L54.86,47.22a1,1,0,0,0-1.19-.17,6.48,6.48,0,0,1-1.29.54,1,1,0,0,0-.71,1V80H48.33v-13a1,1,0,0,0-1-1H11.17V62.72H47.33a1,1,0,0,0,1-1V48.55a1,1,0,0,0-.7-1,8,8,0,0,1-5.24-5.22,1,1,0,0,0-1-.7H11.17V38.33H29.81a1,1,0,0,0,1-1V20h2.75V37.33a1,1,0,0,0,1,1h6.88a1,1,0,0,0,1-.7,8,8,0,0,1,15.22,0s0,0,0,0l.06.11a.91.91,0,0,0,.13.19.26.26,0,0,0,.09.09.85.85,0,0,0,.19.14l.11,0a1,1,0,0,0,.35.07H88.83v3.34H58.56a1,1,0,0,0-1,.71,7.09,7.09,0,0,1-.54,1.31,1,1,0,0,0,.17,1.18l31.6,31.59V80Zm1.19-6.37L59.15,44l.12-.28H88.83Zm0-37.31H59.26a10,10,0,0,0-18.53,0H35.56V20H88.83ZM28.81,20V36.33H11.17V20Z"></path><path d="M50,34.38A5.62,5.62,0,1,0,55.62,40,5.62,5.62,0,0,0,50,34.38Zm0,9.24A3.62,3.62,0,1,1,53.62,40,3.62,3.62,0,0,1,50,43.62Z"></path><path d="M95.83,12H4.17a1,1,0,0,0-1,1V87a1,1,0,0,0,1,1H95.83a1,1,0,0,0,1-1V13A1,1,0,0,0,95.83,12Zm-1,74H5.17V14H94.83Z"></path><path d="M20.22,50.68a1,1,0,0,0-1.64,0l-4.47,6.47a1,1,0,0,0-.07,1,1,1,0,0,0,.89.54h9a1,1,0,0,0,.88-.54,1,1,0,0,0-.06-1Zm-3.39,6L19.4,53,22,56.72Z"></path><path d="M32.22,50.68a1,1,0,0,0-1.64,0l-4.47,6.47a1,1,0,0,0-.07,1,1,1,0,0,0,.89.54h9a1,1,0,0,0,.88-.54,1,1,0,0,0-.06-1Zm-3.39,6L31.4,53,34,56.72Z"></path><path d="M20.63,73.25c-1-.31-1.26-.48-1.26-.77s.16-.47.83-.47a3.67,3.67,0,0,1,1.57.37l.31-1.26a4.17,4.17,0,0,0-1.55-.33v-.85H19.45v.91c-1.16.22-1.8.91-1.8,1.84s.74,1.46,1.92,1.84c.86.26,1.09.43,1.09.74s-.32.53-.93.53a4,4,0,0,1-1.82-.46l-.33,1.29a4.75,4.75,0,0,0,1.84.46V78h1.07V77c1.25-.21,1.91-1,1.91-1.87S21.9,73.63,20.63,73.25Z"></path><path d="M26.88,73.25c-1-.31-1.26-.48-1.26-.77s.16-.47.83-.47a3.67,3.67,0,0,1,1.57.37l.31-1.26a4.17,4.17,0,0,0-1.55-.33v-.85H25.7v.91c-1.16.22-1.8.91-1.8,1.84s.74,1.46,1.92,1.84c.86.26,1.09.43,1.09.74s-.32.53-.93.53a4,4,0,0,1-1.82-.46l-.33,1.29a4.75,4.75,0,0,0,1.84.46V78h1.07V77c1.24-.21,1.91-1,1.91-1.87S28.15,73.63,26.88,73.25Z"></path><path d="M33.13,73.25c-1-.31-1.26-.48-1.26-.77S32,72,32.69,72a3.68,3.68,0,0,1,1.58.37l.31-1.26A4.22,4.22,0,0,0,33,70.79v-.85H32v.91c-1.16.22-1.8.91-1.8,1.84s.74,1.46,1.92,1.84c.86.26,1.09.43,1.09.74s-.32.53-.93.53a4,4,0,0,1-1.82-.46l-.33,1.29a4.75,4.75,0,0,0,1.84.46V78H33V77c1.24-.21,1.91-1,1.91-1.87S34.4,73.63,33.13,73.25Z"></path><path d="M66.78,31A4,4,0,0,1,65,30.53l-.33,1.29a4.57,4.57,0,0,0,1.84.47v.91h1.07v-1c1.24-.21,1.91-1,1.91-1.87s-.5-1.5-1.77-1.88c-1-.32-1.26-.48-1.26-.78s.16-.47.83-.47a3.67,3.67,0,0,1,1.57.37l.31-1.26A4.38,4.38,0,0,0,67.58,26v-.84H66.5v.91c-1.16.21-1.8.91-1.8,1.83s.74,1.46,1.92,1.84c.86.27,1.09.43,1.09.75S67.39,31,66.78,31Z"></path><path d="M73,31a4,4,0,0,1-1.82-.47l-.33,1.29a4.57,4.57,0,0,0,1.84.47v.91h1.07v-1c1.24-.21,1.91-1,1.91-1.87s-.5-1.5-1.77-1.88c-1-.32-1.26-.48-1.26-.78s.16-.47.82-.47a3.68,3.68,0,0,1,1.58.37l.31-1.26A4.43,4.43,0,0,0,73.83,26v-.84H72.75v.91c-1.16.21-1.8.91-1.8,1.83s.74,1.46,1.92,1.84c.86.27,1.09.43,1.09.75S73.64,31,73,31Z"></path><path d="M79.28,31a4,4,0,0,1-1.82-.47l-.33,1.29a4.57,4.57,0,0,0,1.84.47v.91H80v-1c1.24-.21,1.91-1,1.91-1.87s-.5-1.5-1.78-1.88c-1-.32-1.25-.48-1.25-.78s.16-.47.82-.47a3.68,3.68,0,0,1,1.58.37l.31-1.26A4.43,4.43,0,0,0,80.08,26v-.84H79v.91c-1.16.21-1.8.91-1.8,1.83s.74,1.46,1.92,1.84c.86.27,1.09.43,1.09.75S79.89,31,79.28,31Z"></path><path d="M77,56.77a1,1,0,0,0,.38.08h7.31a1,1,0,0,0,1-1V48.54a1,1,0,0,0-1-1H77.41a1,1,0,0,0-1,1v7.31a1,1,0,0,0,.08.38A1,1,0,0,0,77,56.77Zm2.8-1.92L83.72,51v3.89Zm2.47-5.31-3.89,3.89V49.54Z"></path><path d="M14.82,32.82a1,1,0,0,0,.93.62h7.3a1,1,0,0,0,1-1v-7.3a1,1,0,0,0-1-1h-7.3a1,1,0,0,0-1,1v7.3h0A.94.94,0,0,0,14.82,32.82Zm3.34-1.38,3.89-3.89v3.89Zm2.48-5.3L16.75,30V26.14Z"></path><path d="M56.56,78.44H69.07a1,1,0,0,0,.8-.39,1,1,0,0,0,.17-.86l-2-7.6a1,1,0,0,0-1-.74h-.16v-1a4.1,4.1,0,0,0-8.19,0v1h-.16a1,1,0,0,0-1,.74l-2,7.6a1,1,0,0,0,1,1.25Zm4.16-10.59a2.1,2.1,0,0,1,4.19,0v1H60.72Zm-1.39,3h7l1.48,5.59H57.86Z"></path></g></svg>