<svg height='300px' width='300px'  fill="#000000" xmlns="http://www.w3.org/2000/svg" xmlns:xlink="http://www.w3.org/1999/xlink" version="1.1" x="0px" y="0px" viewBox="0 0 100 100" style="enable-background:new 0 0 100 100;" xml:space="preserve"><path d="M42.7011719,43.855957c0.5527344,0,1-0.4477539,1-1V26.3447266c0-0.5522461-0.4472656-1-1-1s-1,0.4477539-1,1V42.855957  C41.7011719,43.4082031,42.1484375,43.855957,42.7011719,43.855957z"></path><path d="M42.7011719,81.4243164c0.5527344,0,1-0.4477539,1-1v-4.1567383c0-0.5522461-0.4472656-1-1-1s-1,0.4477539-1,1v4.1567383  C41.7011719,80.9765625,42.1484375,81.4243164,42.7011719,81.4243164z"></path><path d="M11,90h24.4023438H50h24.4023438H89c0.5527344,0,1-0.4477539,1-1V15.9941406c0-0.5522461-0.4472656-1-1-1H75.4023438V11  c0-0.5522461-0.4472656-1-1-1H50c-0.5527344,0-1,0.4477539-1,1v3.9941406H36.4023438V11c0-0.5522461-0.4472656-1-1-1H11  c-0.5527344,0-1,0.4477539-1,1v78C10,89.5522461,10.4472656,90,11,90z M34.4023438,62.9277344H12V37.0722656h22.4023438V62.9277344z   M12,64.9277344h22.4023438v7.0893555H12V64.9277344z M34.4023438,35.0722656H12v-7.0893555h22.4023438V35.0722656z M12,74.0170898  h22.4023438V88H12V74.0170898z M73.4023438,62.9277344H51V37.0722656h22.4023438V62.9277344z M51,64.9277344h22.4023438v7.0893555  H51V64.9277344z M73.4023438,35.0722656H51v-7.0893555h22.4023438V35.0722656z M51,74.0170898h22.4023438V88H51V74.0170898z   M88,16.9941406V88H75.4023438V16.9941406H88z M51,12h22.4023438v3.9941406v9.9887695H51v-9.9887695V12z M49,16.9941406V88  H36.4023438V16.9941406H49z M34.4023438,12v3.9941406v9.9887695H12V12H34.4023438z"></path><path d="M23.2011719,59.0200195c3.9736328,0,7.2070312-4.0463867,7.2070312-9.0200195s-3.2333984-9.0200195-7.2070312-9.0200195  S15.9951172,45.0263672,15.9951172,50S19.2275391,59.0200195,23.2011719,59.0200195z M23.2011719,42.9799805  c2.8710938,0,5.2070312,3.1489258,5.2070312,7.0200195s-2.3359375,7.0200195-5.2070312,7.0200195  S17.9951172,53.8710938,17.9951172,50S20.3300781,42.9799805,23.2011719,42.9799805z"></path><path d="M81.7011719,43.855957c0.5527344,0,1-0.4477539,1-1V26.3447266c0-0.5522461-0.4472656-1-1-1s-1,0.4477539-1,1V42.855957  C80.7011719,43.4082031,81.1484375,43.855957,81.7011719,43.855957z"></path><path d="M81.7011719,81.4243164c0.5527344,0,1-0.4477539,1-1v-4.1567383c0-0.5522461-0.4472656-1-1-1s-1,0.4477539-1,1v4.1567383  C80.7011719,80.9765625,81.1484375,81.4243164,81.7011719,81.4243164z"></path><path d="M62.2011719,59.0200195c3.9736328,0,7.2070312-4.0463867,7.2070312-9.0200195s-3.2333984-9.0200195-7.2070312-9.0200195  S54.9951172,45.0263672,54.9951172,50S58.2275391,59.0200195,62.2011719,59.0200195z M62.2011719,42.9799805  c2.8710938,0,5.2070312,3.1489258,5.2070312,7.0200195s-2.3359375,7.0200195-5.2070312,7.0200195  S56.9951172,53.8710938,56.9951172,50S59.3300781,42.9799805,62.2011719,42.9799805z"></path></svg>