<svg height='300px' width='300px'  fill="#000000" xmlns="http://www.w3.org/2000/svg" xmlns:xlink="http://www.w3.org/1999/xlink" xmlns:serif="http://www.serif.com/" viewBox="0 0 101 101" version="1.1" xml:space="preserve" style="" x="0px" y="0px" fill-rule="evenodd" clip-rule="evenodd" stroke-linejoin="round" stroke-miterlimit="2"><path d="M26.335,42.729l3.281,-6.608c2.599,-5.234 8.95,-7.37 14.184,-4.77c3.64,1.808 7.603,3.775 7.603,3.775c1.944,0.966 2.737,3.325 1.772,5.269l-1.128,2.272l43.522,0c2.171,0 3.931,1.76 3.931,3.931l-0,37.709c-0,2.806 -1.115,5.497 -3.099,7.482c-1.984,1.984 -4.676,3.099 -7.482,3.099l-44.809,0c-2.807,0 -5.498,-1.115 -7.482,-3.099c-1.985,-1.985 -3.1,-4.676 -3.1,-7.482l-0,-4.351l-6.2,12.485c-0.965,1.945 -3.324,2.738 -5.269,1.772c-0,0 -3.962,-1.967 -7.603,-3.775c-5.234,-2.6 -7.369,-8.95 -4.77,-14.184l3.281,-6.608c-3.544,0.587 -6.436,-0.195 -8.354,-1.683c-1.739,-1.35 -2.87,-3.306 -3.08,-5.841c-0.192,-2.312 0.423,-5.063 2.813,-7.133c1.487,-1.287 3.878,-2.436 7.738,-2.559c-2.235,-3.15 -2.764,-5.749 -2.637,-7.712c0.204,-3.155 2.025,-5.307 3.983,-6.552c2.146,-1.364 4.388,-1.645 6.514,-1.076c2.345,0.629 4.716,2.461 6.391,5.639Zm11.124,29.312l-0,12.266c-0,1.764 0.701,3.455 1.948,4.702c1.247,1.248 2.939,1.948 4.703,1.948l14.213,0l-0,-44.359l-8.228,0l-12.636,25.443Zm33.316,18.916l-0,-44.359l-8.521,0l-0,44.359l8.521,0Zm3.931,0l14.213,0c1.764,0 3.455,-0.7 4.703,-1.948c1.247,-1.247 1.947,-2.938 1.947,-4.702l-0,-37.709l-20.863,0l-0,44.359Zm-55.178,-25.684l-6.322,12.73c-1.633,3.289 -0.291,7.28 2.999,8.914c3.641,1.808 7.603,3.776 7.603,3.776l9.28,-18.687l-13.56,-6.733Zm1.748,-3.521l13.56,6.734l3.79,-7.632l-13.559,-6.734l-3.791,7.632Zm2.672,-14.216c-0.188,-0.851 -0.429,-1.611 -0.735,-2.241c-1.809,-4.064 -4.879,-5.588 -7.675,-3.811c-2.098,1.333 -4.041,4.525 1.07,10.329c0.702,0.856 0.837,2.044 0.345,3.035c-0.492,0.992 -1.52,1.602 -2.626,1.56c-7.714,-0.566 -9.082,2.912 -8.877,5.389c0.274,3.302 3.344,4.826 7.675,3.811c0.687,-0.136 1.439,-0.403 2.229,-0.768l8.594,-17.304Zm16.426,9.797l9.28,-18.686c-0,0 -3.962,-1.968 -7.603,-3.776c-3.289,-1.633 -7.281,-0.291 -8.914,2.999l-6.322,12.73l13.559,6.733Zm16.801,-17.926c0.529,0 1.036,-0.218 1.399,-0.604c0.362,-0.386 0.55,-0.905 0.517,-1.433c-0.015,-0.361 -0.032,-0.687 -0.051,-0.897c-0.519,-5.546 -2.955,-10.765 -6.926,-14.737c-1.848,-1.848 -3.372,-3.372 -3.372,-3.372c-0.767,-0.767 -2.013,-0.767 -2.78,0c-0.767,0.767 -0.767,2.012 -0,2.779c-0,0 1.525,1.525 3.373,3.373c3.28,3.28 5.307,7.578 5.774,12.152c0.022,0.212 0.04,0.561 0.055,0.94c0.064,1.011 0.903,1.798 1.916,1.798l0.095,0.001Zm18.771,0c1.014,0 1.853,-0.789 1.916,-1.801c0.013,-0.34 0.029,-0.648 0.047,-0.837c0.448,-4.612 2.481,-8.949 5.785,-12.253c1.848,-1.848 3.372,-3.373 3.372,-3.373c0.767,-0.767 0.767,-2.012 -0,-2.779c-0.767,-0.767 -2.012,-0.767 -2.779,0c-0,0 -1.525,1.524 -3.373,3.372c-4.077,4.078 -6.536,9.472 -6.963,15.184c-0.008,0.113 -0.016,0.273 -0.023,0.458c-0.03,0.527 0.159,1.044 0.521,1.428c0.363,0.383 0.868,0.601 1.396,0.601l0.101,0Zm-14.504,-28.404l0.513,-1.579c0.642,-1.975 2.482,-3.312 4.559,-3.312c2.077,0 3.918,1.337 4.559,3.312l0.513,1.579l1.66,0c2.077,0 3.918,1.337 4.559,3.312c0.642,1.976 -0.061,4.139 -1.741,5.36l-1.343,0.976l0.513,1.578c0.642,1.975 -0.061,4.139 -1.742,5.36c-1.68,1.221 -3.955,1.221 -5.635,0l-1.343,-0.976l-1.343,0.976c-1.68,1.221 -3.955,1.221 -5.635,0c-1.68,-1.221 -2.383,-3.385 -1.741,-5.36l0.512,-1.578l-1.342,-0.976c-1.68,-1.221 -2.384,-3.384 -1.742,-5.36c0.642,-1.975 2.483,-3.312 4.559,-3.312l1.66,0Zm4.251,-0.364c0.116,-0.355 0.447,-0.596 0.821,-0.596c0.374,0 0.705,0.241 0.821,0.596c0.631,1.942 1.395,4.295 1.395,4.295l4.516,0c0.374,0 0.705,0.241 0.821,0.596c0.115,0.356 -0.011,0.745 -0.314,0.965c-1.651,1.2 -3.653,2.654 -3.653,2.654c-0,0 0.765,2.353 1.396,4.295c0.115,0.356 -0.011,0.745 -0.314,0.965c-0.302,0.22 -0.712,0.22 -1.014,0c-1.652,-1.2 -3.654,-2.654 -3.654,-2.654c-0,0 -2.001,1.454 -3.653,2.654c-0.303,0.22 -0.712,0.22 -1.015,0c-0.302,-0.22 -0.429,-0.609 -0.313,-0.965c0.631,-1.942 1.395,-4.295 1.395,-4.295c-0,0 -2.001,-1.454 -3.653,-2.654c-0.302,-0.22 -0.429,-0.609 -0.313,-0.965c0.115,-0.355 0.446,-0.596 0.82,-0.596l4.516,0c-0,0 0.765,-2.353 1.395,-4.295Zm24.194,2.738c1.085,0 1.965,0.881 1.965,1.966c-0,1.085 -0.88,1.965 -1.965,1.965c-1.085,0 -1.966,-0.88 -1.966,-1.965c-0,-1.085 0.881,-1.966 1.966,-1.966Zm-46.745,0c1.084,0 1.965,0.881 1.965,1.966c-0,1.085 -0.881,1.965 -1.965,1.965c-1.085,0 -1.966,-0.88 -1.966,-1.965c-0,-1.085 0.881,-1.966 1.966,-1.966Z"></path></svg>