<svg height='300px' width='300px'  fill="#000000" xmlns="http://www.w3.org/2000/svg" xmlns:xlink="http://www.w3.org/1999/xlink" viewBox="0 0 68 66" version="1.1" x="0px" y="0px"><title>bank transfer, currency, money, transaction, connection, computer, digital</title><desc>Created with Sketch.</desc><g stroke="none" stroke-width="1" fill="none" fill-rule="evenodd"><g transform="translate(-416.000000, -538.000000)" fill="#000000" fill-rule="nonzero"><path d="M463,567 L463,563 L452.001743,563 C449.795033,563 448,561.205616 448,559.005439 L448,541.994561 C448,539.785494 449.787626,538 452.001743,538 L479.998257,538 C482.204967,538 484,539.794384 484,541.994561 L484,559.005439 C484,561.214506 482.212374,563 479.998257,563 L467,563 L467,567 L470,567 C471.104569,567 472,567.895431 472,569 C472,570.104569 471.104569,571 470,571 L460,571 C458.895431,571 458,570.104569 458,569 C458,567.895431 458.895431,567 460,567 L463,567 Z M452,559.005439 L479.998257,559 L480,541.994561 C480,542.003847 479.996152,542 479.998257,542 L452.001743,542 L452,559.005439 Z M448,588 L448,600 L450,600 C451.104569,600 452,600.895431 452,602 C452,603.104569 451.104569,604 450,604 L418,604 C416.895431,604 416,603.104569 416,602 C416,600.895431 416.895431,600 418,600 L420,600 L420,588 L418,588 C416.895431,588 416,587.104569 416,586 L416,581 C416,580.242456 416.428005,579.54993 417.105573,579.211146 L433.105573,571.211146 C433.668628,570.929618 434.331372,570.929618 434.894427,571.211146 L450.894427,579.211146 C451.571995,579.54993 452,580.242456 452,581 L452,586 C452,587.104569 451.104569,588 450,588 L448,588 Z M420,584 L448,584 L448,582.236068 L434,575.236068 L420,582.236068 L420,584 Z M444,588 L440,588 L440,600 L444,600 L444,588 Z M436,588 L432,588 L432,600 L436,600 L436,588 Z M428,588 L424,588 L424,600 L428,600 L428,588 Z M471,583.828427 L469.414214,585.414214 C468.633165,586.195262 467.366835,586.195262 466.585786,585.414214 C465.804738,584.633165 465.804738,583.366835 466.585786,582.585786 L471.585786,577.585786 C472.366835,576.804738 473.633165,576.804738 474.414214,577.585786 L479.414214,582.585786 C480.195262,583.366835 480.195262,584.633165 479.414214,585.414214 C478.633165,586.195262 477.366835,586.195262 476.585786,585.414214 L475,583.828427 L475,585 C475,591.075132 470.075132,596 464,596 L460,596 C458.895431,596 458,595.104569 458,594 C458,592.895431 458.895431,592 460,592 L464,592 C467.865993,592 471,588.865993 471,585 L471,583.828427 L471,583.828427 Z M429,556.171573 L430.585786,554.585786 C431.366835,553.804738 432.633165,553.804738 433.414214,554.585786 C434.195262,555.366835 434.195262,556.633165 433.414214,557.414214 L428.414214,562.414214 C427.633165,563.195262 426.366835,563.195262 425.585786,562.414214 L420.585786,557.414214 C419.804738,556.633165 419.804738,555.366835 420.585786,554.585786 C421.366835,553.804738 422.633165,553.804738 423.414214,554.585786 L425,556.171573 L425,555 C425,548.924868 429.924868,544 436,544 L440,544 C441.104569,544 442,544.895431 442,546 C442,547.104569 441.104569,548 440,548 L436,548 C432.134007,548 429,551.134007 429,555 L429,556.171573 Z"></path></g></g></svg>