<svg height='300px' width='300px'  fill="#000000" xmlns="http://www.w3.org/2000/svg" xmlns:xlink="http://www.w3.org/1999/xlink" viewBox="0 0 56 60" version="1.1" x="0px" y="0px"><title>46 -Bookshelf- (Outline)</title><desc>Created with Sketch.</desc><g stroke="none" stroke-width="1" fill="none" fill-rule="evenodd"><g transform="translate(-722.000000, -820.000000)" fill="#000000"><g transform="translate(722.000000, 820.000000)"><path d="M48.7207,58 L49.9997,58 L49.9997,54 L47.3877,54 L48.7207,58 Z M50.9997,60 L47.9997,60 C47.5697,60 47.1877,59.725 47.0517,59.316 L45.0517,53.316 C44.9497,53.011 45.0007,52.676 45.1887,52.416 C45.3767,52.154 45.6787,52 45.9997,52 L50.9997,52 C51.5527,52 51.9997,52.448 51.9997,53 L51.9997,59 C51.9997,59.552 51.5527,60 50.9997,60 L50.9997,60 Z"></path><path d="M6,58 L7.279,58 L8.612,54 L6,54 L6,58 Z M8,60 L5,60 C4.447,60 4,59.552 4,59 L4,53 C4,52.448 4.447,52 5,52 L10,52 C10.321,52 10.623,52.154 10.812,52.416 C10.999,52.676 11.051,53.011 10.948,53.316 L8.948,59.316 C8.813,59.725 8.431,60 8,60 L8,60 Z"></path><path d="M4,48 L52,48 L52,6 L4,6 L4,48 Z M53,50 L3,50 C2.447,50 2,49.552 2,49 L2,5 C2,4.448 2.447,4 3,4 L53,4 C53.553,4 54,4.448 54,5 L54,49 C54,49.552 53.553,50 53,50 L53,50 Z"></path><path d="M2,4 L54,4 L54,2 L2,2 L2,4 Z M55,6 L1,6 C0.447,6 0,5.552 0,5 L0,1 C0,0.448 0.447,0 1,0 L55,0 C55.553,0 56,0.448 56,1 L56,5 C56,5.552 55.553,6 55,6 L55,6 Z"></path><path d="M2,52 L54,52 L54,50 L2,50 L2,52 Z M55,54 L1,54 C0.447,54 0,53.552 0,53 L0,49 C0,48.448 0.447,48 1,48 L55,48 C55.553,48 56,48.448 56,49 L56,53 C56,53.552 55.553,54 55,54 L55,54 Z"></path><path d="M8,44 L48,44 L48,10 L8,10 L8,44 Z M49,46 L7,46 C6.447,46 6,45.552 6,45 L6,9 C6,8.448 6.447,8 7,8 L49,8 C49.553,8 50,8.448 50,9 L50,45 C50,45.552 49.553,46 49,46 L49,46 Z"></path><path d="M49,17 L7,17 C6.447,17 6,16.552 6,16 C6,15.448 6.447,15 7,15 L49,15 C49.553,15 50,15.448 50,16 C50,16.552 49.553,17 49,17"></path><path d="M37,23 C36.447,23 36,22.552 36,22 L36,19 C36,18.448 36.447,18 37,18 C38.103,18 39,17.103 39,16 C39,14.897 38.103,14 37,14 C35.897,14 35,14.897 35,16 C35,16.552 34.553,17 34,17 C33.447,17 33,16.552 33,16 C33,13.794 34.794,12 37,12 C39.206,12 41,13.794 41,16 C41,17.86 39.724,19.428 38,19.874 L38,22 C38,22.552 37.553,23 37,23"></path><path d="M28,23 C27.447,23 27,22.552 27,22 L27,19 C27,18.448 27.447,18 28,18 C29.103,18 30,17.103 30,16 C30,14.897 29.103,14 28,14 C26.897,14 26,14.897 26,16 C26,16.552 25.553,17 25,17 C24.447,17 24,16.552 24,16 C24,13.794 25.794,12 28,12 C30.206,12 32,13.794 32,16 C32,17.86 30.724,19.428 29,19.874 L29,22 C29,22.552 28.553,23 28,23"></path><path d="M19,23 C18.447,23 18,22.552 18,22 L18,19 C18,18.448 18.447,18 19,18 C20.103,18 21,17.103 21,16 C21,14.897 20.103,14 19,14 C17.897,14 17,14.897 17,16 C17,16.552 16.553,17 16,17 C15.447,17 15,16.552 15,16 C15,13.794 16.794,12 19,12 C21.206,12 23,13.794 23,16 C23,17.86 21.724,19.428 20,19.874 L20,22 C20,22.552 19.553,23 19,23"></path><path d="M15,37 L23,37 L23,28 C23,27.448 23.447,27 24,27 L26,27 L26,26 C26,24.546 23.547,23 19,23 C14.453,23 12,24.546 12,26 L12,27 L14,27 C14.553,27 15,27.448 15,28 L15,37 Z M24,39 L14,39 C13.447,39 13,38.552 13,38 L13,29 L11,29 C10.447,29 10,28.552 10,28 L10,26 C10,23.009 13.617,21 19,21 C24.383,21 28,23.009 28,26 L28,28 C28,28.552 27.553,29 27,29 L25,29 L25,38 C25,38.552 24.553,39 24,39 L24,39 Z"></path><path d="M42,39 L33,39 C32.447,39 32,38.552 32,38 C32,37.448 32.447,37 33,37 L41,37 L41,28 C41,27.448 41.447,27 42,27 L44,27 L44,26 C44,24.546 41.547,23 37,23 C35.407,23 33.995,23.192 32.803,23.571 C32.274,23.74 31.714,23.446 31.547,22.92 C31.38,22.394 31.671,21.832 32.197,21.665 C33.586,21.224 35.202,21 37,21 C42.383,21 46,23.009 46,26 L46,28 C46,28.552 45.553,29 45,29 L43,29 L43,38 C43,38.552 42.553,39 42,39"></path><path d="M33,39 L24,39 C23.447,39 23,38.552 23,38 C23,37.448 23.447,37 24,37 L32,37 L32,28 C32,27.448 32.447,27 33,27 L35,27 L35,26 C35,24.546 32.547,23 28,23 C26.407,23 24.995,23.192 23.803,23.571 C23.274,23.74 22.714,23.446 22.547,22.92 C22.38,22.394 22.671,21.832 23.197,21.665 C24.586,21.224 26.202,21 28,21 C33.383,21 37,23.009 37,26 L37,28 C37,28.552 36.553,29 36,29 L34,29 L34,38 C34,38.552 33.553,39 33,39"></path></g></g></g></svg>